# xmcd
# 
# Track frame offsets:
#     155
#     12990
#     23782
#     35197
#     49605
#     64097
#     76330
#     88195
#     99247
#     112815
#     131940
#     151660
# 
# Disc length: 2201
# 
# Revision: 1
# Processed by: cddbd v1.5.2PL0 Copyright (c) Steve Scherf et al.
# Submitted via: fre:ac v1.0.31
# 
DISCID=8f08970c
DTITLE=Various Artist - The Best Of Chess Blues-Volume Two
DYEAR=1988
DGENRE=Blues
TTITLE0=Howlin' Wolf - Back Door Man
TTITLE1=Elmore James - Madison Blues
TTITLE2=Sonny Boy Williamson - Your Funeral My Trial
TTITLE3=Otis Rush - So Many Roads, So Many Trains
TTITLE4=Buddy Guy - My Time After Awhile
TTITLE5=Muddy Waters - You Shook Me
TTITLE6=Sonny Boy Williamson - Bring It On Home
TTITLE7=Howlin' Wolf - Little Red Rooster
TTITLE8=John Lee Hooker - One Bourbon, One Scotch, One Beer
TTITLE9=Etta James - Baby What You Want Me To Do
TTITLE10=Little Milton - Stormy Monday
TTITLE11=Koko Taylor - Wang Dang Doodle
EXTD=
EXTT0=Howlin' Wolf\n
EXTT1=Elmore James\n
EXTT2=Sonny Boy Williamson\n
EXTT3=Otis Rush\n
EXTT4=Buddy Guy\n
EXTT5=Muddy Waters\n
EXTT6=Sonny Boy Williamson\n
EXTT7=Howlin' Wolf\n
EXTT8=John Lee Hooker\n
EXTT9=Etta James\n
EXTT10=Little Milton\n
EXTT11=Koko Taylor\n
PLAYORDER=
